<?xml version="1.0" encoding="utf-8"?>
<!-- Generator: Adobe Illustrator 27.0.0, SVG Export Plug-In . SVG Version: 6.00 Build 0)  -->
<svg version="1.1" id="Layer_1" xmlns="http://www.w3.org/2000/svg" xmlns:xlink="http://www.w3.org/1999/xlink" x="0px" y="0px"
	 viewBox="0 0 351.3 162.4" style="enable-background:new 0 0 351.3 162.4;" xml:space="preserve">
	 <style type="text/css">
	@import url(../../css/settings.css);
	@import url(../../css/logo.css);
</style>
<linearGradient id="my-cool-gradient" x2="1" y2="1">
    <stop offset="0%" stop-color="var(--main-gold)" />
    <stop offset="50%" stop-color="brown" />
    <stop offset="100%" stop-color="var(--main-gold)" />
  </linearGradient>
<path id="t" d="M324.6,82.4c0-1.3,0.1-2.2,0.4-2.6s1.1-0.6,2.3-0.6c0.7,0,1.6,0,2.5,0c1.4,0,3.3-0.1,5.8-0.2c4.1-0.1,6.1-0.4,5.9-1
	s-1.9-0.8-5-0.8c-3.1,0.1-5,0.1-5.6,0.1c-1.4,0-2.8,0-4.2,0c-0.9,0-1.4-0.1-1.6-0.3c-0.2-0.2-0.3-0.7-0.3-1.5c0-0.6,0-1.2,0-1.7
	s0-1,0-1.5c0-0.9,0-1.8-0.1-2.8c-0.1-0.5-0.4-0.9-0.9-1c-0.6-0.1-1.1,0.1-1.5,0.6c-0.4,0.6-0.6,1.2-0.6,2c0,0.5-0.1,1-0.1,1.5
	c0,0.9-0.1,1.8-0.1,2.8c-0.1,0.8-0.2,1.4-0.4,1.7c-0.2,0.3-0.8,0.4-1.7,0.4c-0.3,0-0.6,0-1,0c-0.6,0-1.2,0-1.8,0
	c-0.6,0-1.2,0.1-1.6,0.3c-0.6,0.3-0.8,0.6-0.6,0.9c0.2,0.3,0.7,0.5,1.4,0.6c0.5,0,1.1,0,1.9,0s1.5,0,2.1,0c0.5,0,0.8,0.2,1,0.5
	s0.3,0.7,0.2,1.2c0,1.5-0.1,3.1-0.2,4.6c0,0.9-0.1,1.9-0.1,2.8c-0.1,1.9-0.1,3.8-0.2,5.8c0,0.1,0,0.1,0,0.2c0.5-0.9,0.9-1.5,1-1.8
	s0.2-0.4,0.3-0.4c-0.1,0-0.2,0.1-0.3,0.4c-0.2,0.3-0.5,0.9-1,1.8c0,0.9,0,1.8,0.1,2.6l0,0c0.1,0.7,0.2,1.3,0.4,2
	c0.4,1.5,1,2.7,2,3.6c0.9,0.9,2.1,1.3,3.6,1.3c1.2-0.1,2.5-0.6,3.9-1.5s2.7-2,3.9-3.3c1.2-1.3,2.3-2.4,3.1-3.5
	c0.8-1.1,1.3-1.8,1.4-2.2c0.1-0.4-0.2-0.2-1.1,0.6c-0.1,0.1-0.3,0.2-0.4,0.4c-0.4,0.3-0.8,0.7-1.1,1.1c-1.4,1.3-2.8,2.5-4.2,3.6
	c-1.4,1.1-2.7,1.9-3.9,2.3c-1.2,0.4-2.2,0.3-2.9-0.4c-0.8-0.7-1.2-2.2-1.2-4.5c0-3.4,0.1-6.7,0.3-9.9
	C324.5,84.9,324.6,83.5,324.6,82.4z"/>
<path id="en" d="M322.1,92.6c-0.1-0.6-0.3-0.6-0.5-0.1c-0.2,0.3-0.5,0.9-1,1.8c-0.3,0.5-0.7,1.1-1.1,1.8c-1.2,1.9-2.2,3-2.9,3.2
	c-0.7,0.3-1.2,0-1.6-0.8c-0.3-0.8-0.4-2.3-0.2-4.5l0.1-0.6c0.1-0.7,0.1-1.3,0.1-1.9c0.1-0.6,0.1-1.2,0.1-1.8s-0.1-1.2-0.3-1.8
	c-0.4-1.2-1.2-1.8-2.5-2c-1.4-0.1-2.8,0.2-4,1.1c-1.3,0.9-2.4,2.1-3.3,3.5c-0.5,0.8-0.9,1.2-1.1,1.5c-0.2,0.2-0.4,0.2-0.5,0
	s-0.1-0.5-0.1-1c0-0.4,0-0.7-0.1-1.2c0-0.4-0.1-0.8-0.1-1c-0.1-0.6-0.3-1-0.6-1.2c-0.3-0.2-0.6-0.3-1-0.3c-0.5,0-0.8,0.1-1.2,0.2
	c-0.2,0.1-0.4,0.4-0.6,0.7c-0.2,0.3-0.7,1.1-1.6,2.2c-0.8,1.1-2.2,2.7-4,4.6c-1.9,2-3.7,3.2-5.2,3.8c-1.5,0.6-2.9,1-4.2,1.1
	c-1.3,0.1-2.4-0.2-3.3-0.9c-1.5-1.2-2.1-2.8-1.9-4.8c0.1-0.7,0.3-1.2,0.5-1.5c0.3-0.3,0.8-0.5,1.5-0.5c1.5-0.1,3-0.2,4.5-0.5
	c1.3-0.2,2.5-0.7,3.5-1.6c0.5-0.5,0.7-1.1,0.7-1.6c-0.1-0.6-0.4-1.1-0.9-1.5c-0.6-0.4-1.2-0.6-2-0.7c-1.6-0.3-3.2-0.2-4.7,0.1
	c-1.9,0.5-3.5,1.4-4.7,2.8c-1.2,1.3-2,3-2.3,4.9c0.1-0.1,0.2-0.2,0.3-0.3c-0.1,0.1-0.2,0.2-0.3,0.3l0,0c-0.1,0.7-0.1,1.3,0,1.9
	c0.5-0.5,1-1,1.4-1.6c0.1-0.1,0.2-0.2,0.2-0.3c-0.1,0.1-0.1,0.2-0.2,0.3c-0.5,0.5-0.9,1.1-1.4,1.6l0,0c0.2,1.6,1,3.1,2.3,4.3
	c1.2,1.1,2.5,1.7,4,2c1.5,0.2,2.9,0.1,4.4-0.2c1.5-0.4,2.9-0.8,4.2-1.5c1.7-0.8,3.4-2.1,5.2-4c1.2-1.4,2.7-3.1,4.3-5.2
	c0.1,2.5,0.1,5,0.2,7.4c0,0.2,0,0.5,0,0.8c0,0.4,0,0.9,0,1.4c0.1,0.6,0.5,1,1.1,1.2c1.1,0.3,1.9-0.2,2.4-1.4
	c0.2-0.4,0.3-0.8,0.5-1.2c0.1-0.3,0.2-0.6,0.3-0.9c0.3-0.9,0.7-2.1,1.4-3.5c0.6-1.4,1.4-2.8,2.2-4.2c0.8-1.3,1.6-2.2,2.4-2.7
	c0.4-0.1,0.6,0,0.7,0.5s0.1,1.1,0.1,1.8c0,0.7-0.1,1.4-0.2,2.1s-0.1,1.2-0.2,1.5c0,0.1,0,0.2,0,0.2c-0.2,2-0.1,3.7,0.4,5.1
	c0.5,1.3,1.3,2.1,2.5,2.4s2.4-0.1,3.8-1.2c1.2-1,2.2-2.3,3.1-4c0.1-0.2,0.2-0.4,0.3-0.6C321.8,94.4,322.2,93.2,322.1,92.6z
	 M281.8,90.2c0.1-0.1,0.2-0.2,0.3-0.3c0.1-0.1,0.2-0.2,0.2-0.2c0.1,0,0.1,0,0.1,0c0.5-0.3,1-0.6,1.5-0.9c0.5-0.2,1.1-0.4,1.7-0.4
	c0.1,0,0.3,0.1,0.4,0.1c0.1,0.1,0.2,0.2,0.3,0.2c0.1,0.3,0,0.6-0.4,0.8c-0.4,0.2-0.9,0.4-1.6,0.5c-0.6,0.1-1.2,0.2-1.8,0.3
	C282,90.3,281.7,90.3,281.8,90.2C281.7,90.4,281.7,90.3,281.8,90.2z"/>
<path id="c" d="M277.6,93.4c-0.1,0-0.1-0.1-0.2-0.1s-0.1,0-0.2,0c-0.2,0-0.5,0.2-0.9,0.4c-0.1,0.1-0.2,0.2-0.2,0.3
	c-0.1,0.1-0.2,0.2-0.3,0.3l0,0c-0.5,0.4-1.2,0.9-2,1.5c-1.2,0.8-2.6,1.6-4.2,2.3c-1.6,0.8-3.2,1.3-4.7,1.8c-1.6,0.4-3,0.6-4.2,0.4
	c-1.2-0.1-2.1-0.7-2.7-1.8c-0.5-1-0.5-2.1-0.3-3.4s0.8-2.4,1.5-3.4c0.9-1.2,2-2,3.4-2.2c0.5-0.1,0.9-0.1,1.4,0.1s0.9,0.4,1.2,0.6
	c0.5,0.3,1,0.4,1.3,0.5c0.4,0,0.7-0.2,0.9-0.9c0.1-0.2,0.1-0.4,0.1-0.6s-0.1-0.4-0.2-0.5c-0.9-0.8-2-1.2-3.3-1.3
	c-1.4-0.1-2.7,0.1-3.9,0.6c-1.3,0.5-2.5,1.3-3.4,2.4c-0.5,0.6-1,1.2-1.3,1.9c-0.3,0.5-0.5,1.1-0.7,1.7c0,0.1-0.1,0.3-0.1,0.4
	c0.5,0,1-0.1,1.5-0.1c0.1,0,0.2,0,0.3-0.1c0.1,0,0.2-0.1,0.3-0.2c0.1-0.1,0.2-0.2,0.2-0.3c0,0.1-0.1,0.2-0.2,0.3
	c-0.1,0.1-0.2,0.1-0.3,0.2c-0.1,0-0.2,0.1-0.3,0.1c-0.5,0-1,0-1.5,0.1c-0.3,1.2-0.3,2.4-0.2,3.6c0.3,2.4,1.6,4,4,4.8
	c1.1,0.3,2.2,0.5,3.2,0.5c1.5,0,2.9-0.2,4.3-0.7c2.1-0.6,4.1-1.7,6.2-3.2c1.4-1,2.7-2,3.8-3.1l0,0c0.5-0.5,1-1,1.4-1.6
	c0.3-0.4,0.4-0.7,0.5-0.9c0-0.1,0-0.1,0-0.2C277.7,93.5,277.6,93.4,277.6,93.4z"/>
<path id="s" d="M280.6,17.1c-0.9-0.8-1.8-1.5-2.9-2.2c-1.7-1-3.5-1.8-5.3-2.4s-3.7-1-5.7-1.2c-1.1-0.2-2.1-0.3-3.1-0.4l0,0
	c-2.2-0.2-4.5-0.3-6.7-0.2c-3.3,0.1-6.6,0.4-9.8,0.8c-9.4,1.3-18.6,3.4-27.6,6.4c-7.2,2.4-14.1,5.6-20.6,9.6
	c-3.9,2.4-7.5,5.2-10.7,8.5c-1.5,1.5-2.8,3.1-4,4.8s-2.2,3.5-2.9,5.5c-1.4,3.9-1.2,7.7,0.5,11.4c0.8,1.7,1.8,3.3,3,4.8
	c2.5,2.9,5.2,5.5,8.3,7.7c5,3.7,10.1,7.1,15.5,10.2c1.5,0.9,3.1,1.9,4.6,2.7c3.7,2.1,7.4,4.3,11.1,6.5c3,1.8,5.9,3.7,8.7,5.8
	c0.1,0.1,0.1,0.1,0.2,0.2c0.2,0.1,0.4,0.3,0.5,0.5s0.2,0.5,0.2,0.9c-0.3,0.2-0.7,0.3-1,0.5c-0.6,0.4-1.3,0.7-2,1
	c-1.6,0.8-3.2,1.7-4.7,2.6s-3,2-4.3,3.2c-1.1,0.9-1.9,2-2.6,3.3c-1,2-1.1,3.9-0.5,5.8s1.9,3.3,3.9,4.3c1.4,0.7,3,1.1,4.6,1.2
	c4.2,0.2,8.3-0.4,12.3-1.8c1.1-0.4,2.2-0.9,3.2-1.6c3.1-1.9,4.2-4.7,3.5-8.2c-0.3-1.4-0.8-2.7-1.4-3.9c-0.6-1.2-1.4-2.4-2.2-3.5
	c-0.2-0.3-0.4-0.5-0.6-0.8c-0.5-0.4-0.9-1-1.1-1.7c0.4-0.3,0.8-0.6,1.3-0.8c0.5-0.2,1-0.3,1.5-0.4c0.1,0,0.3-0.1,0.4-0.1
	c1.1-0.2,2.1-0.4,3.3-0.7c1.4-0.3,2.8-0.7,4.2-0.9c0.9-0.2,1.9-0.3,2.8-0.4l0,0c0.5,0,1-0.1,1.5-0.1c0.2,0,0.5-0.1,0.6-0.2
	c0.2-0.2,0.3-0.4,0.3-0.7c0-0.3-0.1-0.6-0.3-0.7c-0.2-0.2-0.4-0.3-0.6-0.3c-0.2,0-0.5-0.1-0.8-0.1l0,0c-0.7-0.1-1.4,0-2.1,0.1
	c-0.1,0-0.3,0-0.4,0c-4.2,0.5-8.4,1.4-12.6,2.6c-1.2,0.4-2.3,0.2-3.3-0.6c-1.7-1.3-3.4-2.5-5.1-3.7c-1.8-1.1-3.5-2.2-5.4-3.3
	c-2.5-1.5-5.1-3-7.7-4.5c-3.9-2.3-7.8-4.6-11.7-6.9c-4.6-2.8-9-5.8-13.1-9.3c-2.7-2.2-5-4.7-6.9-7.5c-3-4.7-3.3-9.5-0.7-14.4
	c2-3.7,4.6-7,7.8-9.8c3.5-3.1,7.4-5.8,11.5-8c4.3-2.3,8.7-4.4,13.3-6.1s9.2-3.1,14-4.3c3.6-0.9,7.3-1.7,11-2.3s7.4-1.1,11.1-1.3
	c2.5-0.2,4.9-0.2,7.3,0c0.3,0,0.6,0,0.9,0.1l0,0c2.1,0.2,4.2,0.6,6.3,1.2c2.5,0.7,4.8,1.8,6.9,3.4c4.4,3.6,5.9,8.1,4.5,13.6
	c-0.5,2-1.4,3.9-2.6,5.7c-1.7,2.6-3.6,5-5.9,7.2c-0.2,0.2-0.3,0.5-0.3,0.8c0.1,0.3,0.3,0.5,0.7,0.5c1.2,0.3,2.3,0,3.2-1
	c1.4-1.4,2.7-2.8,3.9-4.3c1.2-1.5,2.3-3.1,3.3-4.8c0.5-1,0.9-2,1.3-3C286.5,26.4,285.1,21.3,280.6,17.1z M237.5,99.8
	c1,1.1,1.9,2.3,2.7,3.6c0.8,1.3,1.3,2.6,1.8,4.1c0.9,3.6-0.3,6-3.7,7.5c-2.7,1.2-5.7,1.9-9,2c-0.1,0-0.2,0-0.3,0
	c-0.4,0-0.9-0.1-1.4-0.1c-2.2-0.4-3.7-1.4-4.5-3.1s-0.7-3.5,0.3-5.5c0.5-1,1.2-1.8,2.1-2.5c1.5-1.3,3.2-2.4,4.9-3.5
	c1.7-1,3.5-1.9,5.3-2.7C236.3,99.1,237,99.2,237.5,99.8z"/>
<path id="t1" d="M154.3,82.4c0-1.3,0.1-2.2,0.4-2.6c0.3-0.4,1-0.6,2.3-0.6c0.7,0,1.6,0,2.5,0c1.4,0,3.3-0.1,5.8-0.2
	c4.2-0.1,6.1-0.4,5.9-1c-0.2-0.6-1.9-0.8-5-0.8c-3.1,0.1-5,0.1-5.6,0.1c-1.4,0-2.8,0-4.2,0c-0.9,0-1.4-0.1-1.6-0.3
	c-0.2-0.2-0.3-0.7-0.3-1.5c0-0.6,0-1.2,0-1.7s0-1,0-1.5c0-0.9,0-1.8-0.1-2.8c-0.1-0.5-0.4-0.9-0.9-1c-0.6-0.1-1.1,0.1-1.5,0.6
	c-0.4,0.6-0.6,1.2-0.6,2c0,0.5-0.1,1-0.1,1.5c0,0.9-0.1,1.8-0.1,2.8c0,0.8-0.2,1.4-0.4,1.7c-0.2,0.3-0.8,0.4-1.7,0.4
	c-0.3,0-0.6,0-1,0c-0.6,0-1.2,0-1.8,0s-1.1,0.1-1.6,0.3c-0.6,0.3-0.8,0.6-0.6,0.9s0.7,0.5,1.4,0.6c0.5,0,1.1,0,1.8,0
	c0.8,0,1.5,0,2.1,0c0.5,0,0.8,0.2,1,0.5s0.3,0.7,0.2,1.2c0,1.5-0.1,3.1-0.2,4.6c0,0.9-0.1,1.9-0.1,2.8c-0.1,1.9-0.1,3.8-0.2,5.7
	c0,0,0,0,0,0.1c0,0.8,0,1.6,0.1,2.3c0.1,0.9,0.2,1.7,0.4,2.5c0.4,1.5,1.1,2.7,2,3.6s2.1,1.4,3.6,1.4c1.2-0.1,2.5-0.6,3.9-1.5
	s2.7-2,3.9-3.3s2.3-2.4,3.1-3.5s1.3-1.8,1.4-2.2c0.1-0.4-0.2-0.2-1.1,0.6c-0.1,0.1-0.3,0.2-0.4,0.4c-0.4,0.3-0.8,0.7-1.1,1.1
	c-1.4,1.3-2.8,2.5-4.2,3.6s-2.7,1.9-3.9,2.3s-2.2,0.3-2.9-0.4c-0.8-0.7-1.2-2.2-1.2-4.5c0-3.4,0.1-6.7,0.3-9.9
	C154.2,84.9,154.3,83.5,154.3,82.4z"/>
<path id="a" d="M150.2,94.1c-0.2,0.2-0.4,0.5-0.7,0.8c-2.1,2.5-3.8,3.8-5.1,3.9s-2.2-0.5-2.7-1.7s-0.5-3.3,0-6.1
	c0.2-1.3,0.3-2.3,0.2-3.2c-0.3-0.6-0.8-1-1.5-1c-0.6,0-1.2,0.2-1.7,0.5c-0.2,0.1-0.3,0.3-0.4,0.5s-0.1,0.4-0.1,0.5s0,0.1,0,0.1
	c-1.4-0.8-2.8-1.2-4-1.2s-2.5,0.3-3.7,0.9c-1,0.5-2,1.1-2.9,1.9s-1.6,1.7-2.1,2.7c-0.2,0.4-0.4,0.9-0.6,1.3l0,0
	c-0.3,0.8-0.5,1.6-0.7,2.4c0,0.1,0,0.2-0.1,0.4c-0.2,1.4,0,2.7,0.6,3.7c0.6,1.1,1.8,1.8,3.6,2c1.5,0.2,3-0.1,4.5-1
	c1.4-0.9,2.9-2.8,4.5-5.9c0.1,2.7,0.9,4.3,2.3,5s3,0.7,5,0.2c1.9-0.5,3.5-1.6,4.8-3.3c0.3-0.4,0.6-0.8,0.8-1.2
	c0.8-1.2,1.4-2.3,1.7-3.3C152.4,92,151.8,92.3,150.2,94.1z M136.3,93.1c-0.6,1.2-1.3,2.4-2.2,3.6s-1.8,2.1-2.7,2.8
	c-0.9,0.7-1.8,0.7-2.5,0.2c-0.5-0.5-0.7-1.3-0.5-2.7c0.1-1.3,0.6-2.7,1.3-4.1s1.7-2.4,3-3c1.2-0.6,2.8-0.5,4.5,0.5
	C137.2,91,136.9,91.9,136.3,93.1z"/>
<path id="e" d="M127,93.4c-0.1-0.1-0.3-0.1-0.6,0c-0.3,0.1-0.7,0.3-1,0.5c-0.1,0.1-0.2,0.1-0.4,0.2c-0.3,0.2-0.6,0.3-0.9,0.6
	c-1.1,0.7-2.4,1.5-3.8,2.3s-2.9,1.5-4.4,2.1s-2.9,1-4.2,1.1c-1.3,0.1-2.4-0.2-3.4-0.9c-1.5-1.2-2.1-2.8-1.9-4.8
	c0-0.7,0.2-1.2,0.5-1.5s0.8-0.5,1.5-0.5c1.5-0.1,3-0.2,4.4-0.5c1.3-0.2,2.5-0.7,3.5-1.6c0.5-0.5,0.7-1.1,0.6-1.6
	c-0.1-0.6-0.4-1-0.9-1.5c-0.6-0.4-1.2-0.6-2-0.7c-1.6-0.3-3.2-0.2-4.7,0.1c-1.9,0.5-3.5,1.4-4.7,2.8c-0.9,1-1.6,2.2-2,3.6
	c-0.1,0.4-0.2,0.9-0.3,1.3c0,0.2-0.1,0.5-0.1,0.7s0,0.5,0,0.7l0,0c0.1,1.8,0.9,3.4,2.3,4.7c1.2,1.1,2.5,1.7,4,1.9
	c1.5,0.2,2.9,0.1,4.4-0.2c1.5-0.4,2.9-0.8,4.3-1.5c1.7-0.8,3.4-1.7,5-2.8c0.7-0.5,1.3-1,1.9-1.5c0.8-0.7,1.6-1.4,2.3-2.2
	C127,93.8,127.2,93.5,127,93.4z M108.5,90.2c0.1-0.1,0.2-0.2,0.3-0.3c0.1-0.1,0.2-0.2,0.2-0.2c0.1,0,0.1,0,0.1,0
	c0.5-0.3,1-0.6,1.5-0.9c0.5-0.2,1.1-0.4,1.7-0.4c0.1,0,0.3,0.1,0.4,0.1c0.1,0.1,0.2,0.2,0.3,0.2c0.2,0.3,0,0.6-0.4,0.8
	c-0.4,0.2-1,0.4-1.6,0.5s-1.2,0.2-1.8,0.3c-0.5,0-0.8,0-0.8-0.1C108.4,90.4,108.4,90.3,108.5,90.2z"/>
<path id="h" d="M102.7,93c-0.1,0.4-0.2,0.9-0.3,1.3c0,0.2-0.1,0.5-0.1,0.7s0,0.5,0,0.7c0.3-0.4,0.6-0.8,0.8-1.3
	c0.6-1.3,0.9-2.1,0.9-2.4C104,91.8,103.6,92.1,102.7,93z M102.7,93c-0.2,0.2-0.5,0.5-0.7,0.8c-1.3,1.5-2.5,2.4-3.5,2.7
	c-1,0.3-1.8,0.2-2.4-0.2c-0.7-0.5-1-1.7-1-3.6c0.1-1.8,0-3.5-0.4-5c-0.3-0.9-0.8-1.5-1.7-1.7c-0.8-0.2-1.6-0.3-2.4-0.2
	c-1.2,0.2-2.2,0.6-3,1.3c-0.8,0.7-1.5,1.5-2.1,2.4c-0.6,1-1.1,1.9-1.6,2.9c-0.3,0.7-0.7,1.3-1,1.9c0-3.8,0.5-8.6,1.6-14.2
	c1-5.7,2-12.3,3-19.9s1.3-13.2,0.9-16.9c-0.1-1.2-0.4-2.4-1-3.5c-0.8-1.3-1.6-1.9-2.5-1.8c-0.6,0.1-1.3,0.4-1.8,0.9
	c-0.2,0.2-0.4,0.4-0.5,0.6c-0.7,0.9-1.2,1.9-1.5,3c-0.2,0.7-0.3,1.5-0.5,2.4c-0.5,2.7-0.8,6.1-1,10c-0.3,5.1-0.5,10.6-0.5,16.5
	s0,11.2,0.1,16.3c0.1,6.3,0.1,10.8-0.1,13.6c0,0,0,0.1,0,0.2c-0.1,0.6,0,1.3,0.2,1.9c0.1,0.4,0.4,0.7,0.8,0.9
	c0.6,0.2,1.2,0.3,1.8,0.1s1-0.5,1.2-1.1c0.3-0.7,0.5-1.3,0.7-2c0.1-0.2,0.2-0.5,0.3-0.7c0-0.1,0.1-0.2,0.1-0.3
	c0.5-1.7,1.1-3.3,1.8-5.1c0.7-1.7,1.5-3.3,2.3-4.8c0.9-1.4,1.5-2,1.9-1.9s0.7,0.6,0.8,1.6c0.1,0.6,0.2,1.3,0.3,2.1
	c0.1,1.2,0.3,2.4,0.5,3.5s0.7,2.1,1.2,2.8c0.6,0.7,1.5,1,2.6,1c0.6,0,1.2-0.2,1.9-0.4c0.7-0.2,1.6-0.6,2.5-1.2s1.6-1.2,2.2-2
	c0-0.2,0-0.5,0-0.7s0-0.5,0.1-0.7C102.5,93.9,102.6,93.4,102.7,93z M83.3,68.9c0.2-4.6,0.3-9.2,0.6-13.8c0.2-4.6,0.4-7.8,0.6-9.8
	c0-0.6,0.1-1.3,0.3-2c0.2-0.7,0.4-1.1,0.8-1.3c0.3-0.2,0.6,0.1,0.7,0.7s0.2,1.5,0.2,2.8c0,2.3-0.2,5.8-0.6,10.5s-0.9,9.2-1.4,13.6
	s-1,8-1.4,10.7C83.1,77.3,83.2,73.5,83.3,68.9z"/>
<path id="w" d="M97.7,9.8c-0.7-1-1.6-0.8-2.9,0.7C85.5,23.6,78.4,37.8,73.2,53c-2.4,7-4.4,14-6.2,21.2s-3.5,14.3-5,21.5
	c-1,5.1-2.1,10.2-3.1,15.3c-1,5-2,10-3,14.9c-0.7,3.2-1.6,6.3-2.7,9.4c0,0.1-0.1,0.1-0.1,0.3c-0.1,0.2-0.2,0.4-0.3,0.6
	c-0.1,0.2-0.4,0.3-0.7,0.4c-0.6-0.7-1.1-1.5-1.5-2.3c-0.4-0.9-0.7-1.7-1-2.6v-0.1c-0.8-2.4-1.5-4.9-2.1-7.4c-0.5-2.5-1-5-1.4-7.6
	c-0.6-3.5-1-7.1-1.4-10.7c-0.3-3.6-0.7-7.2-0.9-10.8c0-0.7-0.1-1.4-0.2-2.1c-0.5-7.1-0.9-14.2-1-21.2c0-1.4-0.1-2.8-0.3-4.2
	c-0.1-0.9-0.4-1.4-0.8-1.8c-0.4-0.3-1.1-0.4-1.9-0.4c-1,0-1.7,0.5-2.1,1.3c-0.4,0.8-0.7,1.7-0.9,2.5c-0.2,0.5-0.3,1.1-0.5,1.7
	c-0.8,2.7-1.5,5.3-2.1,8c-0.1,0.6-0.3,1.2-0.4,1.8c-0.9,3.8-1.8,7.6-2.7,11.4c-0.9,3.8-2,7.5-3.2,11.2c-0.4,1.4-0.9,2.7-1.4,4
	s-1.1,2.6-1.9,3.9c-0.4,0.7-0.8,1.3-1.2,2c-0.5,0.7-0.9,1.1-1.3,1.1l0,0c-0.3,0-0.7-0.4-1-1.2c-0.6-1.3-1.1-2.6-1.5-4
	c-0.7-2.7-1.3-5.5-1.8-8.2c-0.4-2.8-0.8-5.5-1.1-8.3c-0.5-4.2-1-8.5-1.4-12.8c-0.3-3.6-0.5-7.2-0.7-10.8c-0.1-3.6-0.1-7.2,0-10.8
	c0.1-2.3,0.2-4.5,0.3-6.8c0-1-0.5-1.5-1.5-1.5c-0.9-0.1-1.5,0.3-1.8,1.1c-0.2,1-0.4,1.8-0.4,2.5c-0.5,5.7-0.6,11.3-0.4,17
	c0.5,8.8,1.3,17.6,2.5,26.2c0.5,3.8,1.2,7.5,2,11.2c0.5,2,1.1,3.9,1.8,5.8c0.7,1.5,1.5,2.4,2.7,2.9c0.7,0.3,1.3,0.4,2,0.5
	c0.5,0,1,0,1.5-0.2c1.2-0.3,2.1-0.9,2.9-1.8c0.9-1.2,1.7-2.4,2.4-3.7c1.3-2.6,2.4-5.4,3.3-8.2c1.2-3.7,2.2-7.4,3.1-11.2
	s1.8-7.5,2.7-11.2c0-0.1,0.1-0.3,0.1-0.4c0.1-0.4,0.1-0.8,0.3-1.1c0.1-0.4,0.3-0.8,0.7-1.2c0,0.2,0.1,0.4,0.1,0.6
	c0.1,0.3,0.1,0.5,0.1,0.7c0.5,9,1.1,18,2,26.9c0.5,5.8,1.4,11.5,2.5,17.2c0.7,3.5,1.6,6.9,2.9,10.2c0.7,1.6,1.5,3,2.5,4.4
	c0.9,1.1,2.1,1.7,3.7,1.8h0.1c0.8,0,1.5-0.2,2.1-0.5c0.7-0.4,1.2-0.9,1.5-1.6c0.1-0.2,0.2-0.4,0.2-0.6c0.4-0.8,0.8-1.6,1.1-2.4
	c1.1-3,1.9-6,2.6-9.1c1.6-7.7,3.1-15.3,4.7-23c1.4-7,2.9-13.9,4.5-20.9c1.6-6.9,3.5-13.8,5.5-20.6c1.7-5.7,3.6-11.2,5.8-16.6
	c0.2-0.9,0.3-1.6,0.5-2.4c0.1-0.3,0.2-0.6,0.3-0.8c-0.1,0.3-0.2,0.5-0.3,0.8c-0.2,0.7-0.3,1.5-0.5,2.4c0.8-2,1.7-4,2.6-6
	c3.7-8.1,7.9-15.9,12.8-23.4C97.8,12.6,98.3,10.8,97.7,9.8z"/>
</svg>
