<?xml version="1.0" encoding="utf-8"?>
<!-- Generator: Adobe Illustrator 27.0.0, SVG Export Plug-In . SVG Version: 6.00 Build 0)  -->
<svg version="1.1" id="Layer_1" xmlns="http://www.w3.org/2000/svg" xmlns:xlink="http://www.w3.org/1999/xlink" x="0px" y="0px"
	 viewBox="0 0 351.32 162.38" style="enable-background:new 0 0 351.32 162.38;" xml:space="preserve">
<style type="text/css">
	.st0{fill:#F9E588;}
</style>
<g>
	<g id="XMLID_00000034791330426837433330000011191939530596783516_">
		<g>
			<path class="st0" d="M320.63,97c-0.1-0.84-0.14-1.73-0.11-2.65c0.54-0.89,0.87-1.5,1.02-1.82c0.22-0.52,0.4-0.49,0.54,0.07
				c0.13,0.56-0.26,1.83-1.16,3.81C320.83,96.61,320.73,96.81,320.63,97z"/>
			<path class="st0" d="M319.35,77.41c0.92,0,1.48-0.14,1.68-0.43c0.21-0.29,0.33-0.87,0.38-1.72c0.06-0.91,0.11-1.83,0.14-2.75
				c0.03-0.48,0.07-0.97,0.12-1.45c0-0.72,0.18-1.37,0.56-1.95c0.41-0.54,0.92-0.75,1.55-0.63c0.54,0.14,0.85,0.49,0.91,1.03
				c0.05,0.91,0.07,1.82,0.07,2.75c0.03,0.51,0.03,1.03,0,1.54c0,0.55,0.02,1.12,0.05,1.71c-0.03,0.82,0.06,1.33,0.28,1.54
				s0.76,0.31,1.62,0.31c1.4,0,2.79,0,4.17,0c0.62,0,2.48-0.04,5.58-0.12c3.09-0.09,4.76,0.16,5,0.75c0.24,0.58-1.72,0.92-5.87,1.02
				c-2.52,0.14-4.46,0.21-5.84,0.21c-0.92-0.04-1.75-0.05-2.48-0.05c-1.24,0-2,0.21-2.29,0.64c-0.29,0.43-0.41,1.3-0.38,2.59
				c-0.03,1.11-0.09,2.46-0.17,4.03c-0.2,3.24-0.3,6.54-0.3,9.9c0.08,2.31,0.49,3.81,1.24,4.5c0.75,0.68,1.73,0.81,2.93,0.38
				c1.2-0.43,2.5-1.19,3.9-2.29c1.4-1.11,2.79-2.29,4.16-3.56c0.3-0.39,0.66-0.75,1.08-1.1c0.14-0.12,0.27-0.24,0.4-0.35
				c0.86-0.83,1.23-1.03,1.11-0.62c-0.12,0.41-0.59,1.16-1.42,2.25c-0.82,1.09-1.86,2.26-3.09,3.53c-1.23,1.26-2.54,2.36-3.91,3.29
				c-1.38,0.93-2.68,1.43-3.92,1.51c-1.51,0-2.73-0.45-3.64-1.35c-0.92-0.89-1.57-2.08-1.96-3.56c-0.17-0.63-0.29-1.28-0.38-1.96
				c0.1-0.19,0.2-0.39,0.29-0.59c0.9-1.98,1.29-3.25,1.16-3.81c-0.14-0.56-0.32-0.59-0.54-0.07c-0.15,0.32-0.48,0.93-1.02,1.82
				c0-0.06,0-0.12,0-0.18c0.08-1.92,0.15-3.84,0.21-5.77c0.03-0.97,0.06-1.91,0.09-2.83c0.08-1.55,0.14-3.1,0.17-4.64
				c0.03-0.49-0.05-0.89-0.24-1.22c-0.18-0.33-0.52-0.51-1.01-0.54c-0.54-0.03-1.23-0.05-2.06-0.05c-0.72,0-1.33,0-1.85,0
				c-0.72-0.08-1.2-0.27-1.44-0.57c-0.24-0.31-0.05-0.62,0.57-0.93c0.44-0.17,0.97-0.26,1.59-0.28c0.61-0.01,1.22-0.01,1.81,0.02
				C318.74,77.4,319.07,77.41,319.35,77.41z"/>
			<path class="st0" d="M277.57,93.4c0.21,0.17,0.07,0.58-0.41,1.24c-0.45,0.54-0.93,1.06-1.44,1.57c-0.08-0.59-0.07-1.22,0.01-1.88
				v-0.01c0.22-0.2,0.4-0.39,0.54-0.57C276.92,93.34,277.36,93.22,277.57,93.4z"/>
			<path class="st0" d="M281.66,90.4c0.03,0.11,0.31,0.13,0.84,0.08c0.53-0.06,1.12-0.15,1.76-0.28c0.64-0.14,1.16-0.32,1.57-0.54
				c0.41-0.23,0.55-0.5,0.42-0.81c-0.08-0.09-0.17-0.18-0.29-0.25s-0.25-0.12-0.39-0.15c-0.62,0-1.19,0.12-1.71,0.36
				c-0.51,0.25-1.01,0.54-1.48,0.88c0,0.03-0.02,0.05-0.07,0.05c-0.06,0.06-0.14,0.14-0.24,0.22c-0.1,0.09-0.2,0.17-0.28,0.26
				C281.7,90.31,281.66,90.36,281.66,90.4z M286.18,91.94c-1.47,0.25-2.96,0.41-4.47,0.47c-0.69,0-1.18,0.15-1.47,0.45
				c-0.29,0.29-0.47,0.8-0.55,1.52c-0.2,1.95,0.44,3.55,1.92,4.78c0.89,0.74,2,1.05,3.32,0.94s2.73-0.47,4.23-1.07
				s3.23-1.88,5.18-3.83c1.86-1.89,3.21-3.41,4.05-4.56c0.85-1.15,1.37-1.89,1.57-2.24c0.21-0.34,0.41-0.58,0.61-0.72
				c0.32-0.14,0.7-0.21,1.15-0.21c0.35,0,0.67,0.09,0.97,0.28c0.31,0.18,0.5,0.58,0.58,1.17c0.03,0.2,0.07,0.53,0.12,0.97
				c0.04,0.45,0.07,0.84,0.07,1.19c0,0.51,0.03,0.86,0.1,1.05c0.07,0.19,0.22,0.18,0.45-0.02c0.22-0.21,0.59-0.69,1.11-1.46
				c0.89-1.37,1.99-2.54,3.3-3.49c1.21-0.86,2.53-1.22,3.97-1.08c1.23,0.13,2.06,0.78,2.48,1.95c0.17,0.59,0.26,1.19,0.26,1.79
				s-0.04,1.21-0.12,1.82c-0.03,0.62-0.08,1.26-0.14,1.92l-0.12,0.61c-0.2,2.23-0.13,3.73,0.21,4.49c0.35,0.76,0.87,1.01,1.57,0.75
				c0.71-0.26,1.66-1.34,2.86-3.25c0.44-0.7,0.82-1.3,1.13-1.81c-0.03,0.92,0.01,1.81,0.11,2.65c-0.85,1.69-1.88,3.02-3.09,3.98
				c-1.34,1.07-2.6,1.46-3.76,1.18c-1.16-0.28-2-1.09-2.5-2.42c-0.5-1.34-0.64-3.02-0.44-5.06c0-0.03,0.01-0.11,0.05-0.25
				c0.03-0.35,0.09-0.85,0.17-1.53c0.09-0.67,0.15-1.36,0.19-2.08s0.01-1.31-0.07-1.78c-0.09-0.47-0.3-0.64-0.65-0.5
				c-0.82,0.46-1.63,1.34-2.42,2.66c-0.79,1.32-1.51,2.71-2.15,4.15c-0.64,1.45-1.09,2.62-1.36,3.51c-0.11,0.28-0.21,0.57-0.3,0.89
				c-0.14,0.4-0.3,0.81-0.47,1.22c-0.45,1.17-1.24,1.62-2.37,1.36c-0.62-0.15-0.99-0.53-1.1-1.15c-0.03-0.49-0.04-0.95-0.04-1.39
				c0-0.28-0.02-0.53-0.05-0.77c-0.03-2.48-0.09-4.96-0.17-7.43c-1.61,2.09-3.03,3.83-4.26,5.2c-1.72,1.89-3.44,3.22-5.16,3.99
				c-1.34,0.61-2.76,1.09-4.25,1.45s-2.97,0.44-4.43,0.24c-1.46-0.21-2.79-0.86-4-1.95c-1.33-1.23-2.1-2.67-2.28-4.31
				c0.51-0.51,0.99-1.03,1.44-1.57c0.48-0.66,0.62-1.07,0.41-1.24c-0.21-0.18-0.65-0.06-1.3,0.35c-0.14,0.18-0.32,0.37-0.54,0.57
				c0.26-1.93,1.02-3.57,2.26-4.92s2.81-2.27,4.7-2.75c1.58-0.35,3.16-0.39,4.73-0.12c0.72,0.11,1.38,0.35,1.97,0.73
				c0.55,0.42,0.85,0.91,0.91,1.47c0.05,0.56-0.16,1.1-0.65,1.62C288.65,91.24,287.49,91.77,286.18,91.94z"/>
			<path class="st0" d="M276.5,17.76c-2.06-1.62-4.37-2.76-6.91-3.42c-2.1-0.56-4.19-0.95-6.29-1.17l0.27-2.21
				c1.05,0.1,2.09,0.23,3.14,0.4c1.95,0.27,3.84,0.68,5.68,1.24c1.83,0.55,3.6,1.34,5.28,2.37c1.04,0.66,2,1.38,2.89,2.16
				c4.57,4.2,5.93,9.27,4.07,15.21c-0.34,1.03-0.77,2.03-1.28,3c-0.96,1.72-2.05,3.33-3.27,4.84c-1.23,1.51-2.53,2.95-3.91,4.33
				c-0.92,0.96-2,1.29-3.23,0.98c-0.34-0.03-0.57-0.2-0.68-0.52c-0.06-0.31,0.02-0.57,0.26-0.77c2.23-2.16,4.19-4.55,5.88-7.17
				c1.2-1.75,2.08-3.64,2.63-5.67C282.37,25.86,280.86,21.33,276.5,17.76z"/>
			<path class="st0" d="M256.58,92.69c-0.17-0.15-0.37-0.26-0.61-0.33c-0.25-0.05-0.51-0.08-0.77-0.1c0.34-0.69,0.78-1.33,1.3-1.91
				c0.91-1.03,2.04-1.82,3.38-2.37c1.27-0.48,2.58-0.67,3.94-0.57c1.36,0.1,2.47,0.53,3.33,1.3c0.14,0.14,0.21,0.31,0.21,0.51
				c0,0.21-0.04,0.41-0.12,0.61c-0.2,0.63-0.49,0.92-0.86,0.88c-0.38-0.04-0.82-0.19-1.34-0.45c-0.37-0.21-0.79-0.4-1.24-0.57
				c-0.45-0.17-0.92-0.21-1.38-0.11c-1.35,0.2-2.46,0.93-3.36,2.18c-0.73,1.03-1.23,2.17-1.48,3.44c-0.26,1.27-0.16,2.4,0.29,3.4
				c0.55,1.03,1.44,1.62,2.68,1.76c1.25,0.14,2.66-0.01,4.23-0.44c1.58-0.43,3.16-1.02,4.74-1.78c1.58-0.76,2.98-1.53,4.2-2.32
				c0.85-0.55,1.53-1.05,2.01-1.49c-0.08,0.66-0.09,1.29-0.01,1.88c-1.11,1.1-2.37,2.15-3.8,3.15c-2.09,1.46-4.16,2.51-6.22,3.15
				c-1.33,0.49-2.75,0.73-4.27,0.73c-1.06,0.03-2.13-0.13-3.21-0.47c-2.33-0.75-3.65-2.34-3.96-4.78c-0.15-1.19-0.1-2.39,0.16-3.58
				c0.49-0.04,1-0.07,1.5-0.08c0.24,0,0.45-0.07,0.64-0.23c0.18-0.16,0.28-0.39,0.28-0.7C256.84,93.08,256.75,92.85,256.58,92.69z"
				/>
			<path class="st0" d="M255.97,92.36c0.24,0.07,0.44,0.18,0.61,0.33c0.17,0.16,0.26,0.39,0.26,0.71c0,0.31-0.1,0.54-0.28,0.7
				c-0.19,0.16-0.4,0.23-0.64,0.23c-0.5,0.01-1.01,0.04-1.5,0.08c0.03-0.15,0.06-0.3,0.1-0.45c0.17-0.6,0.4-1.17,0.68-1.7
				C255.46,92.28,255.72,92.31,255.97,92.36z"/>
			<path class="st0" d="M229.25,116.9c3.31-0.09,6.32-0.76,9.03-2.01c3.37-1.44,4.6-3.93,3.68-7.48c-0.4-1.47-0.98-2.83-1.75-4.09
				c-0.77-1.26-1.68-2.45-2.71-3.57c-0.54-0.57-1.18-0.65-1.9-0.26c-1.82,0.81-3.59,1.73-5.28,2.74c-1.7,1.02-3.32,2.17-4.86,3.45
				c-0.83,0.72-1.52,1.55-2.07,2.5c-1.03,1.97-1.14,3.8-0.34,5.48c0.81,1.68,2.3,2.71,4.47,3.1c0.51,0.07,0.97,0.11,1.38,0.14
				C229.04,116.9,229.16,116.9,229.25,116.9z M244.16,96.44c-0.14,0.03-0.28,0.07-0.4,0.1c-0.52,0.07-1.02,0.2-1.52,0.37
				c-0.5,0.17-0.94,0.43-1.32,0.77c0.27,0.69,0.64,1.25,1.13,1.69c0.2,0.25,0.41,0.51,0.61,0.78c0.86,1.14,1.61,2.32,2.25,3.53
				c0.64,1.22,1.12,2.52,1.43,3.9c0.75,3.54-0.41,6.28-3.47,8.2c-1.03,0.61-2.11,1.12-3.24,1.55c-4,1.43-8.1,2.03-12.32,1.8
				c-1.66-0.11-3.21-0.52-4.64-1.24c-1.97-1.03-3.27-2.48-3.88-4.34c-0.62-1.86-0.44-3.78,0.52-5.76c0.66-1.28,1.52-2.39,2.58-3.31
				c1.35-1.2,2.78-2.28,4.3-3.22c1.53-0.95,3.1-1.82,4.73-2.61c0.68-0.35,1.36-0.69,2.01-1.04c0.35-0.17,0.69-0.34,1.03-0.51
				c0.03-0.38-0.03-0.67-0.18-0.87c-0.16-0.2-0.34-0.37-0.54-0.51c-0.08-0.04-0.15-0.09-0.21-0.17c-2.79-2.12-5.69-4.06-8.72-5.81
				c-3.68-2.17-7.37-4.32-11.09-6.45c-1.55-0.89-3.09-1.8-4.64-2.74c-5.36-3.09-10.52-6.49-15.47-10.19
				c-3.06-2.28-5.83-4.86-8.3-7.74c-1.2-1.48-2.21-3.08-3.04-4.8c-1.75-3.67-1.92-7.46-0.52-11.35c0.72-2,1.68-3.84,2.88-5.54
				c1.21-1.69,2.54-3.3,3.99-4.82c3.23-3.34,6.8-6.19,10.71-8.55c6.5-4,13.36-7.2,20.58-9.61c9.01-3.02,18.22-5.16,27.63-6.44
				c3.27-0.44,6.54-0.7,9.83-0.79c2.24-0.06,4.47,0.02,6.7,0.24l-0.27,2.21c-0.32-0.03-0.63-0.06-0.95-0.08
				c-2.43-0.2-4.86-0.21-7.32-0.04c-3.73,0.22-7.44,0.65-11.12,1.3c-3.68,0.65-7.34,1.42-10.98,2.31
				c-4.75,1.17-9.41,2.61-13.98,4.31c-4.57,1.71-9,3.73-13.3,6.07c-4.16,2.24-8.01,4.92-11.55,8.04c-3.16,2.78-5.75,6.03-7.79,9.75
				c-2.6,4.94-2.39,9.75,0.66,14.44c1.94,2.81,4.24,5.31,6.91,7.48c4.16,3.43,8.54,6.53,13.15,9.28c3.89,2.33,7.78,4.62,11.65,6.89
				c2.58,1.48,5.14,2.98,7.69,4.5c1.83,1.06,3.62,2.16,5.37,3.29c1.75,1.14,3.45,2.36,5.11,3.67c1,0.83,2.1,1.03,3.3,0.61
				c4.13-1.2,8.31-2.06,12.56-2.58c0.14,0,0.28-0.01,0.42-0.05c0.7-0.12,1.4-0.16,2.07-0.1c-0.28,0.53-0.51,1.1-0.68,1.7
				c-0.04,0.15-0.07,0.3-0.1,0.45c-0.96,0.07-1.91,0.2-2.83,0.38c-1.41,0.27-2.8,0.58-4.17,0.93
				C246.31,96,245.22,96.24,244.16,96.44z"/>
			<path class="st0" d="M152.01,93.14c-0.33,1-0.9,2.11-1.72,3.34c-0.08-0.74-0.1-1.51-0.07-2.31c0-0.02,0-0.04,0-0.06
				C151.8,92.31,152.39,91.98,152.01,93.14z"/>
			<path class="st0" d="M146.25,77.34c0.62-0.01,1.22-0.01,1.81,0.02c0.38,0.04,0.71,0.05,0.99,0.05c0.92,0,1.48-0.14,1.69-0.43
				c0.2-0.29,0.32-0.87,0.37-1.72c0.06-0.91,0.11-1.83,0.14-2.75c0.03-0.48,0.07-0.97,0.12-1.45c0-0.72,0.19-1.37,0.56-1.95
				c0.41-0.54,0.92-0.75,1.55-0.63c0.55,0.14,0.85,0.49,0.91,1.03c0.05,0.91,0.07,1.82,0.07,2.75c0.03,0.51,0.03,1.03,0,1.54
				c0,0.55,0.02,1.12,0.05,1.71c-0.03,0.82,0.06,1.33,0.28,1.54s0.76,0.31,1.62,0.31c1.4,0,2.8,0,4.17,0c0.63,0,2.48-0.04,5.58-0.12
				c3.09-0.09,4.76,0.16,5,0.75c0.24,0.58-1.71,0.92-5.87,1.02c-2.51,0.14-4.46,0.21-5.83,0.21c-0.93-0.04-1.75-0.05-2.49-0.05
				c-1.23,0-2,0.21-2.28,0.64c-0.29,0.43-0.42,1.3-0.39,2.59c-0.03,1.11-0.09,2.46-0.17,4.03c-0.2,3.24-0.3,6.54-0.3,9.9
				c0.08,2.31,0.49,3.81,1.24,4.5c0.75,0.68,1.73,0.81,2.93,0.38c1.21-0.43,2.51-1.19,3.9-2.29c1.4-1.11,2.79-2.29,4.16-3.56
				c0.3-0.39,0.66-0.75,1.08-1.1c0.14-0.12,0.28-0.24,0.4-0.35c0.86-0.83,1.23-1.03,1.11-0.62c-0.11,0.41-0.59,1.16-1.41,2.25
				c-0.83,1.09-1.86,2.26-3.1,3.53c-1.23,1.26-2.54,2.36-3.91,3.29c-1.38,0.93-2.68,1.43-3.92,1.51c-1.51,0-2.73-0.45-3.64-1.35
				c-0.91-0.89-1.57-2.08-1.96-3.56c-0.21-0.79-0.35-1.61-0.42-2.48c0.82-1.23,1.39-2.34,1.72-3.34c0.38-1.16-0.21-0.83-1.79,0.97
				c0.08-1.9,0.15-3.8,0.21-5.71c0.03-0.97,0.06-1.91,0.1-2.83c0.07-1.55,0.13-3.1,0.16-4.64c0.03-0.49-0.05-0.89-0.23-1.22
				c-0.19-0.33-0.53-0.51-1.01-0.54c-0.55-0.03-1.24-0.05-2.07-0.05c-0.71,0-1.33,0-1.85,0c-0.72-0.08-1.2-0.27-1.44-0.57
				c-0.24-0.31-0.05-0.62,0.58-0.93C145.1,77.45,145.63,77.36,146.25,77.34z"/>
			<path class="st0" d="M125.4,93.86c0.34-0.2,0.68-0.35,1.01-0.46s0.54-0.11,0.64,0.02c0.1,0.12-0.03,0.41-0.41,0.84
				c-0.68,0.79-1.44,1.53-2.28,2.23c0.14-0.82,0.35-1.62,0.65-2.4C125.15,94,125.28,93.93,125.4,93.86z"/>
			<path class="st0" d="M134.1,96.75c0.86-1.21,1.58-2.41,2.16-3.61c0.59-1.21,0.91-2.1,0.98-2.67c-1.75-0.94-3.25-1.1-4.5-0.48
				c-1.25,0.61-2.25,1.62-2.99,3.02c-0.74,1.4-1.19,2.76-1.33,4.08s0.04,2.2,0.52,2.66c0.72,0.51,1.54,0.44,2.47-0.21
				C132.34,98.88,133.24,97.95,134.1,96.75z M126.41,93.4c-0.33,0.11-0.67,0.26-1.01,0.46c-0.12,0.07-0.25,0.14-0.39,0.23
				c0.17-0.44,0.36-0.87,0.58-1.3c0.51-0.97,1.23-1.87,2.14-2.7c0.92-0.83,1.87-1.48,2.87-1.94c1.24-0.63,2.48-0.93,3.73-0.89
				c1.25,0.03,2.59,0.44,4.01,1.24c0.03,0.03,0.04,0,0.04-0.1c0-0.14,0.04-0.31,0.11-0.52c0.07-0.21,0.19-0.38,0.36-0.51
				c0.47-0.34,1.03-0.51,1.67-0.51s1.13,0.32,1.47,0.96c0.07,0.83-0.02,1.88-0.25,3.16c-0.52,2.81-0.52,4.84,0,6.07
				c0.51,1.24,1.42,1.81,2.73,1.72c1.3-0.08,2.99-1.37,5.07-3.86c0.24-0.29,0.47-0.56,0.68-0.8c0,0.02,0,0.04,0,0.06
				c-0.03,0.8-0.01,1.57,0.07,2.31c-0.25,0.38-0.53,0.77-0.83,1.17c-1.27,1.7-2.86,2.78-4.77,3.27c-1.91,0.48-3.56,0.42-4.95-0.2
				s-2.15-2.27-2.29-4.96c-1.58,3.07-3.08,5.03-4.51,5.89c-1.43,0.86-2.92,1.18-4.47,0.98c-1.75-0.28-2.93-0.96-3.55-2.04
				c-0.62-1.08-0.82-2.32-0.62-3.74c0.02-0.12,0.04-0.24,0.06-0.36c0.84-0.7,1.6-1.44,2.28-2.23c0.38-0.43,0.51-0.72,0.41-0.84
				C126.95,93.29,126.74,93.29,126.41,93.4z"/>
			<path class="st0" d="M109.23,90.48c0.53-0.06,1.12-0.15,1.76-0.28c0.64-0.14,1.17-0.32,1.6-0.54c0.43-0.23,0.56-0.5,0.39-0.81
				c-0.08-0.09-0.18-0.18-0.29-0.25c-0.12-0.07-0.25-0.12-0.39-0.15c-0.63,0-1.2,0.12-1.71,0.36c-0.52,0.25-1.01,0.54-1.48,0.88
				c0,0.03-0.02,0.05-0.07,0.05c-0.06,0.06-0.14,0.14-0.24,0.22c-0.11,0.09-0.2,0.17-0.29,0.26c-0.08,0.09-0.13,0.14-0.13,0.18
				C108.42,90.51,108.7,90.53,109.23,90.48z M112.91,91.94c-1.47,0.25-2.95,0.41-4.43,0.47c-0.72,0-1.22,0.15-1.51,0.45
				c-0.29,0.29-0.46,0.8-0.51,1.52c-0.23,1.95,0.39,3.55,1.88,4.78c0.92,0.74,2.04,1.05,3.36,0.94s2.72-0.47,4.21-1.07
				c1.48-0.6,2.94-1.3,4.36-2.11c1.42-0.8,2.7-1.56,3.84-2.28c0.33-0.21,0.63-0.39,0.9-0.55c-0.3,0.78-0.51,1.58-0.65,2.4
				c-0.6,0.51-1.24,1-1.92,1.46c-1.64,1.12-3.31,2.06-5.03,2.83c-1.35,0.61-2.76,1.09-4.26,1.45c-1.49,0.36-2.96,0.44-4.43,0.24
				c-1.46-0.21-2.79-0.86-3.99-1.95c-1.46-1.34-2.23-2.92-2.32-4.74c0.32-0.4,0.59-0.82,0.82-1.27c0.64-1.26,0.92-2.06,0.85-2.4
				c-0.06-0.28-0.51,0.02-1.35,0.9c0.37-1.37,1.04-2.58,1.99-3.61c1.24-1.35,2.81-2.27,4.7-2.75c1.57-0.35,3.15-0.39,4.73-0.12
				c0.72,0.11,1.38,0.35,1.97,0.73c0.55,0.42,0.85,0.91,0.9,1.47c0.06,0.56-0.16,1.1-0.64,1.62
				C115.38,91.24,114.22,91.77,112.91,91.94z"/>
			<path class="st0" d="M104.08,92.11c0.07,0.34-0.21,1.14-0.85,2.4c-0.23,0.45-0.5,0.87-0.82,1.27c-0.04-0.46-0.02-0.95,0.05-1.45
				c0.06-0.46,0.15-0.9,0.27-1.32C103.57,92.13,104.02,91.83,104.08,92.11z"/>
			<path class="st0" d="M86.49,45.44c-0.03-1.23-0.11-2.15-0.25-2.75c-0.14-0.6-0.38-0.82-0.71-0.65c-0.32,0.18-0.57,0.61-0.75,1.32
				c-0.17,0.7-0.27,1.36-0.3,1.99c-0.17,1.95-0.37,5.21-0.59,9.78c-0.22,4.57-0.4,9.16-0.56,13.75c-0.16,4.59-0.23,8.41-0.23,11.46
				c0.37-2.75,0.82-6.33,1.36-10.74c0.53-4.42,1-8.96,1.41-13.63C86.29,51.29,86.49,47.79,86.49,45.44z M90.26,88.39
				c-0.42-0.1-1.05,0.52-1.91,1.87c-0.89,1.43-1.68,3.02-2.35,4.75c-0.67,1.74-1.26,3.43-1.78,5.09c-0.03,0.06-0.06,0.15-0.09,0.26
				c-0.11,0.23-0.2,0.47-0.26,0.72c-0.2,0.69-0.45,1.36-0.73,2.02c-0.23,0.55-0.63,0.91-1.2,1.08s-1.17,0.13-1.8-0.12
				c-0.4-0.17-0.68-0.46-0.82-0.87c-0.2-0.62-0.27-1.26-0.21-1.9c0-0.07,0-0.13,0-0.16c0.14-2.72,0.17-7.24,0.07-13.57
				c-0.08-5.05-0.12-10.48-0.12-16.29c0-5.81,0.15-11.3,0.45-16.45c0.23-3.94,0.57-7.27,1.04-10.01c0.82-2.02,1.68-4.02,2.58-6
				c0.57-0.52,1.19-0.81,1.84-0.88c0.88-0.08,1.7,0.51,2.46,1.79c0.52,1.1,0.84,2.26,0.96,3.5c0.35,3.65,0.04,9.27-0.92,16.85
				s-1.97,14.21-3.01,19.9c-1.05,5.68-1.58,10.43-1.58,14.25c0.35-0.58,0.69-1.2,1.04-1.86c0.48-0.96,1.02-1.93,1.63-2.89
				c0.6-0.96,1.31-1.78,2.13-2.45c0.82-0.67,1.81-1.09,2.99-1.26c0.79-0.13,1.6-0.08,2.42,0.16c0.82,0.23,1.37,0.8,1.65,1.71
				c0.35,1.58,0.47,3.26,0.36,5.04c0,1.89,0.32,3.09,0.98,3.59c0.66,0.5,1.47,0.58,2.45,0.25c0.98-0.33,2.13-1.23,3.46-2.7
				c0.27-0.3,0.52-0.57,0.74-0.8c-0.12,0.42-0.21,0.86-0.27,1.32c-0.07,0.5-0.09,0.99-0.05,1.45c-0.57,0.73-1.29,1.38-2.16,1.95
				c-0.98,0.61-1.83,1.02-2.54,1.23c-0.71,0.21-1.36,0.33-1.93,0.37c-1.15,0.06-2.02-0.27-2.62-0.99c-0.6-0.72-1.02-1.64-1.25-2.78
				c-0.24-1.13-0.41-2.3-0.52-3.5c-0.11-0.77-0.21-1.45-0.3-2.06C90.95,89.03,90.67,88.49,90.26,88.39z"/>
			<path class="st0" d="M82.58,39.41c0.18-0.22,0.36-0.42,0.55-0.6c-0.9,1.98-1.76,3.98-2.58,6c0.15-0.85,0.31-1.64,0.48-2.37
				C81.35,41.32,81.86,40.31,82.58,39.41z"/>
			<path class="st0" d="M21.84,114.47c0.33,0,0.75-0.35,1.26-1.06c0.43-0.62,0.84-1.28,1.21-1.97c0.74-1.26,1.36-2.56,1.88-3.89
				c0.52-1.33,0.99-2.68,1.43-4.05c1.2-3.67,2.28-7.39,3.22-11.16c0.95-3.76,1.85-7.55,2.71-11.37c0.14-0.62,0.28-1.22,0.42-1.8
				c0.66-2.69,1.36-5.37,2.11-8.04c0.14-0.59,0.3-1.16,0.47-1.71c0.23-0.86,0.54-1.7,0.91-2.53c0.42-0.83,1.14-1.26,2.14-1.29
				c0.81-0.06,1.43,0.06,1.86,0.36c0.43,0.31,0.7,0.89,0.81,1.75c0.17,1.37,0.27,2.77,0.3,4.19c0.14,7.08,0.49,14.16,1.03,21.24
				c0.08,0.69,0.14,1.37,0.17,2.06c0.26,3.58,0.57,7.16,0.91,10.76c0.35,3.59,0.8,7.15,1.36,10.69c0.38,2.54,0.84,5.06,1.38,7.55
				c0.55,2.5,1.24,4.96,2.07,7.4c0,0.03,0.01,0.07,0.04,0.12c0.28,0.89,0.61,1.75,0.99,2.6c0.37,0.84,0.87,1.62,1.5,2.34
				c0.34-0.08,0.58-0.22,0.71-0.42c0.14-0.2,0.24-0.41,0.32-0.61c0.03-0.11,0.06-0.2,0.09-0.26c1.17-3.06,2.09-6.19,2.74-9.4
				c1.04-4.98,2.05-9.96,3.05-14.95c1.03-5.08,2.06-10.18,3.1-15.3c1.46-7.22,3.11-14.4,4.93-21.53c1.82-7.13,3.9-14.19,6.25-21.18
				c5.15-15.25,12.34-29.43,21.56-42.54c1.29-1.46,2.27-1.7,2.93-0.71c0.65,0.99,0.07,2.89-1.76,5.68
				c-4.89,7.49-9.16,15.28-12.81,23.37c-0.19,0.18-0.37,0.38-0.55,0.6c-0.72,0.9-1.23,1.91-1.55,3.03
				c-0.17,0.73-0.33,1.52-0.48,2.37c-2.19,5.39-4.13,10.92-5.8,16.57c-2.06,6.84-3.91,13.73-5.54,20.65
				c-1.63,6.92-3.14,13.87-4.51,20.86c-1.55,7.65-3.11,15.32-4.69,22.99c-0.66,3.09-1.52,6.13-2.58,9.12
				c-0.31,0.83-0.67,1.62-1.08,2.39c-0.07,0.2-0.16,0.39-0.25,0.56c-0.35,0.69-0.85,1.2-1.5,1.55c-0.66,0.34-1.36,0.51-2.11,0.51
				h-0.12c-1.52-0.03-2.74-0.61-3.66-1.75c-1.03-1.38-1.87-2.86-2.53-4.43c-1.26-3.3-2.22-6.69-2.88-10.18
				c-1.17-5.7-2.02-11.43-2.53-17.2c-0.89-8.94-1.56-17.91-2.02-26.93c0-0.2-0.03-0.44-0.09-0.73c-0.03-0.17-0.06-0.36-0.1-0.56
				c-0.31,0.42-0.53,0.82-0.65,1.2c-0.13,0.37-0.22,0.75-0.28,1.12c-0.03,0.14-0.07,0.28-0.1,0.42c-0.86,3.75-1.75,7.5-2.68,11.24
				s-1.98,7.46-3.15,11.15c-0.86,2.81-1.95,5.54-3.26,8.18c-0.69,1.31-1.49,2.55-2.41,3.72c-0.75,0.89-1.72,1.48-2.89,1.77
				c-0.49,0.12-0.97,0.17-1.45,0.15L21.84,114.47z"/>
			<path class="st0" d="M21.83,114.47h0.01l-0.15,2.71c-0.67-0.01-1.34-0.16-2-0.45c-1.14-0.49-2.03-1.47-2.69-2.92
				c-0.75-1.89-1.37-3.81-1.85-5.77c-0.86-3.71-1.53-7.46-2.02-11.25c-1.23-8.68-2.07-17.43-2.53-26.25
				c-0.26-5.67-0.14-11.34,0.38-17.01c0.06-0.78,0.19-1.56,0.4-2.32c0.31-0.81,0.93-1.19,1.85-1.13c1,0,1.5,0.49,1.5,1.46
				c-0.03,2.29-0.12,4.57-0.26,6.84c-0.17,3.61-0.19,7.2-0.05,10.78c0.14,3.58,0.37,7.17,0.68,10.78c0.38,4.27,0.84,8.53,1.39,12.78
				c0.31,2.79,0.69,5.57,1.13,8.34c0.45,2.77,1.03,5.51,1.75,8.23c0.37,1.37,0.86,2.69,1.45,3.96
				C21.17,114.04,21.5,114.45,21.83,114.47z"/>
		</g>
		<g>
		</g>
	</g>
</g>
</svg>
